<svg id="Layer_1" data-name="Layer 1" xmlns="http://www.w3.org/2000/svg" xmlns:xlink="http://www.w3.org/1999/xlink" viewBox="0 0 400 300"><defs><linearGradient id="linear-gradient" x1="186.47" y1="203.52" x2="197.53" y2="197.6" gradientUnits="userSpaceOnUse"><stop offset="0" stop-color="#fff" stop-opacity="0"/><stop offset="0.99" stop-color="#dc841e"/></linearGradient><linearGradient id="linear-gradient-2" x1="147.26" y1="251.44" x2="160.04" y2="242.12" xlink:href="#linear-gradient"/><linearGradient id="linear-gradient-3" x1="267.9" y1="196.3" x2="301.3" y2="168.36" xlink:href="#linear-gradient"/></defs><title>61-70</title><path d="M106.52,173.74,61.3,199.84l116.83,67.89L362.54,161.2,235.95,79.74" fill="#f9d8a3"/><polyline points="260.02 169.85 191.58 213.37 173.11 199.48 236.76 164.03" opacity="0.32" fill="url(#linear-gradient)"/><polyline points="223.97 220.58 160.45 257.09 129.07 239.63 185.13 208.41" opacity="0.32" fill="url(#linear-gradient-2)"/><polyline points="324.61 167.05 267.56 199.4 252.47 191.01 308.54 159.79" opacity="0.32" fill="url(#linear-gradient-3)"/><path d="M101.46,91.45,232.38,16.1a4,4,0,0,1,6,3.15l8.4,104.4a4,4,0,0,1-2,3.8L116.64,200a4,4,0,0,1-5.95-3L99.49,95.35A4,4,0,0,1,101.46,91.45Z" fill="#007ced"/><path d="M143.19,210l68.64-40.06a2.37,2.37,0,0,1,3.57,2v22.82a2.37,2.37,0,0,1-1.2,2.06l-68.67,39.22a2.37,2.37,0,0,1-3.55-2l-.36-21.28A3.16,3.16,0,0,1,143.19,210Z" fill="#e2ac00"/><ellipse cx="154.42" cy="217.86" rx="7.45" ry="6.49" transform="translate(-112.53 210.9) rotate(-53.18)" fill="#fff"/><path d="M167.46,207.78l28-16.14a1.13,1.13,0,0,0-1.14-1.94l-28,16.14a1.13,1.13,0,0,0,1.14,1.94Z" fill="#f2f2f2"/><path d="M168.62,214.34l38.6-22.24a1.13,1.13,0,0,0-1.14-1.94l-38.6,22.24a1.13,1.13,0,0,0,1.14,1.94Z" fill="#f2f2f2"/><path d="M156.27,217.21l68.64-40.06a2.37,2.37,0,0,1,3.57,2V202a2.37,2.37,0,0,1-1.2,2.06L158.61,243.3a2.37,2.37,0,0,1-3.55-2L154.7,220A3.16,3.16,0,0,1,156.27,217.21Z" fill="#f47b56"/><ellipse cx="167.5" cy="225.07" rx="7.45" ry="6.49" transform="translate(-113.06 224.26) rotate(-53.18)" fill="#fff"/><path d="M180.53,215l28-16.14a1.13,1.13,0,0,0-1.14-1.94L179.4,213a1.13,1.13,0,0,0,1.14,1.94Z" fill="#f2f2f2"/><path d="M181.69,221.55l38.6-22.24a1.13,1.13,0,0,0-1.14-1.94l-38.6,22.24a1.13,1.13,0,0,0,1.14,1.94Z" fill="#f2f2f2"/><path d="M168.46,224.85l68.64-40.06a2.37,2.37,0,0,1,3.57,2v22.82a2.37,2.37,0,0,1-1.2,2.06L170.8,250.94a2.37,2.37,0,0,1-3.55-2l-.36-21.28A3.16,3.16,0,0,1,168.46,224.85Z" fill="#007ced"/><path d="M168.46,224.85l68.64-40.06a2.37,2.37,0,0,1,3.57,2v22.82a2.37,2.37,0,0,1-1.2,2.06L170.8,250.94a2.37,2.37,0,0,1-3.55-2l-.36-21.28A3.16,3.16,0,0,1,168.46,224.85Z" opacity="0.15"/><ellipse cx="179.69" cy="232.7" rx="7.45" ry="6.49" transform="translate(-114.28 237.08) rotate(-53.18)" fill="#fff"/><path d="M192.73,222.63l28-16.14a1.13,1.13,0,0,0-1.14-1.94l-28,16.14a1.13,1.13,0,0,0,1.14,1.94Z" fill="#f2f2f2"/><path d="M193.89,229.19l38.6-22.24a1.13,1.13,0,0,0-1.14-1.94l-38.6,22.24a1.13,1.13,0,0,0,1.14,1.94Z" fill="#f2f2f2"/><polygon points="233.02 38.48 192.49 62.57 197.22 121 237.95 98.07 233.02 38.48" fill="#e2ac00"/><polygon points="185.41 66.17 144.87 90.27 149.6 148.69 190.34 125.77 185.41 66.17" fill="#f9d8a3"/><path d="M136.52,94.79c0,.3,2.21,24,2.21,24s-26.79,15.24-26.65,15-2.72-23.53-2.72-23.53Z" fill="#f9d8a3"/><path d="M140.52,125.84c0,.3,2.21,24,2.21,24s-26.79,15.24-26.65,15-2.72-23.53-2.72-23.53Z" fill="#f47b56"/><path d="M308.48,146.77s-3.23,22.08,10.67,22.15c13.35.07,9.91-22.42,9.91-22.42S319.35,138.06,308.48,146.77Z" fill="#007ced"/><path d="M308.48,146.77s-3.23,22.08,10.67,22.15c13.35.07,9.91-22.42,9.91-22.42S319.35,138.06,308.48,146.77Z" opacity="0.15"/><ellipse cx="318.73" cy="146.77" rx="10.27" ry="4.24" fill="#007ced"/><ellipse cx="318.73" cy="146.77" rx="10.27" ry="4.24" opacity="0.7"/><path d="M302.56,114.53s-7.16-1.72-4.41-7.68C298.15,106.86,303.07,107.83,302.56,114.53Z" fill="#938f05"/><path d="M306.91,120.54s-1-5.09,3-7.15C309.9,113.4,313.1,118.73,306.91,120.54Z" fill="#938f05"/><path d="M311.38,128.35s-1.19-6.09,3.57-8.55C314.95,119.8,318.77,126.18,311.38,128.35Z" fill="#938f05"/><path d="M314.84,136.85s-1.19-6.09,3.57-8.55C318.41,128.3,322.23,134.69,314.84,136.85Z" fill="#938f05"/><path d="M306.48,120.68s-2.53-4.53-6.89-3.53C299.59,117.15,300.59,123.28,306.48,120.68Z" fill="#938f05"/><path d="M311,128.54s-3.23-5.3-8.4-3.9C302.6,124.63,304.08,131.93,311,128.54Z" fill="#938f05"/><path d="M314.44,136.93s-3.8-4.91-8.78-3C305.66,134,307.93,141.06,314.44,136.93Z" fill="#938f05"/><path d="M317.12,151.07h.1a5,5,0,0,1,1,.08.49.49,0,0,0,0-.1,73.42,73.42,0,0,0-15.44-37.27c-.45-.56-1.23.23-.79.79A72.07,72.07,0,0,1,317.11,151Z" fill="#42352f"/><path d="M334.07,124.26s6.14-1.47,3.78-6.59C337.85,117.67,333.62,118.51,334.07,124.26Z" fill="#938f05"/><path d="M330.33,129.41s.85-4.37-2.56-6.13C327.77,123.28,325,127.86,330.33,129.41Z" fill="#938f05"/><path d="M326.5,136.11s1-5.23-3.06-7.33C323.44,128.78,320.16,134.25,326.5,136.11Z" fill="#938f05"/><path d="M323.53,143.41s1-5.23-3.06-7.33C320.47,136.07,317.19,141.55,323.53,143.41Z" fill="#938f05"/><path d="M330.7,129.53s2.17-3.89,5.91-3C336.61,126.5,335.76,131.76,330.7,129.53Z" fill="#938f05"/><path d="M326.82,136.27s2.77-4.54,7.21-3.35C334,132.92,332.76,139.18,326.82,136.27Z" fill="#938f05"/><path d="M323.87,143.47s3.26-4.21,7.53-2.53C331.41,140.94,329.46,147,323.87,143.47Z" fill="#938f05"/><path d="M333.87,123.61A63,63,0,0,0,321.33,151c.32-.05.66-.1,1-.13a61.82,61.82,0,0,1,12.23-26.57C334.93,123.81,334.25,123.13,333.87,123.61Z" fill="#42352f"/><path d="M237,80.85s.41-2.81,0-3.9a23.6,23.6,0,0,1-.66-4.1,1.14,1.14,0,0,0-1.32.71c-.39.95.42,3.27.42,3.27s-2.33,4.84,0,7.05S237,80.85,237,80.85Z" fill="#ffac99"/><path d="M252.51,96,237,80.85s-3.51,7.62,0,11.11l14.21,14.14" fill="#ce5438"/><path d="M255.4,158.49s2.14,3,2,4.7-2.9,4.66-3.52,5.9-.78,1.78,0,2.69,7.45-4.91,7.6-5.84-.93-4.5-.93-4.5l3,3.74,2.16-1.27-4.57-7.7" fill="#ea7554"/><path d="M254.56,171.86c.18-.18,5.46-2,5.46-2s2.48-2.58,2.41-3.57-1-4.89-1.91-4.85-1,5.22-1,5.22Z" fill="#15156d"/><path d="M248.28,163.4l-.68,7.9s-1.71,1.25-2.13,1.14-1.67-.43-1.69-.63.6-5.59.43-5.72-2.79,4.11-3.61,4.2-7.09-3.55-6.48-4.94,3.63-.66,5.12-.67a5.24,5.24,0,0,0,4.68-3.43" fill="#ea7554"/><path d="M244.31,142l-3.82,20.26s2.21,2.89,10.11,2.52l5.88-14.37" fill="#938f05"/><path d="M242.62,110.21s-5.89,8.6-4.08,22.53c1.61,12.35,13.94,26.89,13.94,26.89s3.69,1.63,11.36-5.64l-8.47-13.47s8.26-19.13-1.49-31.28" fill="#938f05"/><g opacity="0.55"><path d="M220.38,100c-3-.25-5-4.31-4.63-9.23s3.1-8.57,6.11-8.32,5,4.31,4.63,9.23S223.39,100.24,220.38,100Zm1.35-15.91c-2-.17-4,3-4.34,6.82s1.11,7.28,3.14,7.45,4-3,4.34-6.82S223.75,84.25,221.73,84.08Z" fill="#f2f2f2"/></g><path d="M226,93.7a.86.86,0,0,0-1.72,0c0,.58,0,1.16,0,1.74l-.19-.38a24.83,24.83,0,0,1-1.5-5c-.21-1.11-1.8-.61-1.66.46a17.27,17.27,0,0,0,.52,2.47l-.17-.07a1.13,1.13,0,0,0-1.44.8,1.6,1.6,0,0,0,0,.81l-.13,0A1.25,1.25,0,0,0,219,96.5a1.14,1.14,0,0,0-.41.67,1.66,1.66,0,0,0,.74,1.58c.59.49,1.24,1.13,1.78,1.66.71.69,1.51,1.38,2.18,1.93s1.76-1.28,1.77-1.89a.79.79,0,0,0,1-.8Q225.93,96.68,226,93.7Z" fill="#ffac99"/><path d="M222.56,95.54q-.61-1.27-1.12-2.58c-.07-.18-.37-.1-.3.08q.53,1.35,1.16,2.65C222.38,95.87,222.65,95.72,222.56,95.54Z" fill="#af594a"/><path d="M243.51,91.21a28.34,28.34,0,0,0-4,4.4c-1.11,1.8-5.57,6.72-7.41,5.24S227,96.54,227,96.54s-4.64,3.2-4.16,6.52c0,0,4.12,8.43,10.55,6.57s8-4.29,8-4.29l1,5.48s8,2.5,11.67-1.21c0,0,2.43-15.74.64-18.09" fill="#ea7554"/><path d="M242.63,81.68c-.06.18-.2,5.89,1.74,6.44s5.24-.81,6.1-2.62-.37-7.58-3.43-7.91S243.17,80,242.63,81.68Z" fill="#ffac99"/><path d="M245,82.74c1.28.87.47,2.51-.07,3.57a5.48,5.48,0,0,0-.57,2.61,3.42,3.42,0,0,1-.83,2.3A9.1,9.1,0,0,0,242.42,93a25.75,25.75,0,0,0,8.58.11,66.56,66.56,0,0,0,7-.94,4.21,4.21,0,0,0-.33-1.44c-.55-1.26-1.45-1.93-1.24-3.42a6.92,6.92,0,0,0,.06-3.4c-.41-1.17-1.4-1.71-2.34-2.4a6,6,0,0,1-.77-.67l-.2-.34a16.66,16.66,0,0,0-1.72-2.93,5.07,5.07,0,0,0-2.77-1.42,8.24,8.24,0,0,0-6.32,1.44s-1.67,1.6-1.14,3.32S243.83,82,245,82.74Z" fill="#f9d8a3"/><path d="M243.52,146.17s6.75,11.68,9,13.46l-1.88,5.14S242.76,153.77,243.52,146.17Z" fill="#635e00"/><path d="M255.23,139.92a36.8,36.8,0,0,1-3.52-14.53c0-.4-.64-.4-.62,0a37.59,37.59,0,0,0,3.61,14.84C254.86,140.59,255.4,140.28,255.23,139.92Z" fill="#635e00"/></svg>